<?xml version="1.0" standalone="no"?>
<!DOCTYPE svg PUBLIC "-//W3C//DTD SVG 20010904//EN"
 "http://www.w3.org/TR/2001/REC-SVG-20010904/DTD/svg10.dtd">
<svg version="1.0" xmlns="http://www.w3.org/2000/svg"
 width="1350.000000pt" height="1350.000000pt" viewBox="0 0 1350.000000 1350.000000"
 preserveAspectRatio="xMidYMid meet">
<metadata>
Created by potrace 1.14, written by Peter Selinger 2001-2017
</metadata>
<g transform="translate(0.000000,1350.000000) scale(0.100000,-0.100000)"
fill="#000000" stroke="none">
<path d="M7829 9652 c-20 -11 -63 -35 -95 -55 -33 -19 -79 -44 -104 -56 -25
-11 -56 -31 -70 -44 -14 -13 -47 -38 -73 -56 -46 -31 -107 -102 -107 -124 0
-6 -11 -24 -24 -41 -52 -69 -73 -133 -52 -161 12 -16 13 -16 29 0 9 9 17 27
17 39 0 13 11 38 24 57 14 19 39 60 57 92 24 43 48 69 90 98 31 21 63 45 71
53 8 8 42 27 74 43 32 16 93 49 134 74 l75 44 103 -2 c90 -2 109 -5 146 -27
40 -23 136 -116 225 -216 38 -42 41 -44 57 -28 16 16 15 20 -30 75 -103 125
-199 213 -255 234 -14 6 -78 12 -141 15 -98 4 -120 2 -151 -14z"/>
<path d="M4950 9457 c-3 -3 -21 -7 -40 -10 -80 -12 -147 -31 -180 -52 -41 -26
-117 -104 -186 -190 -72 -91 -127 -157 -148 -178 -18 -19 -18 -21 -1 -33 22
-16 38 -6 84 50 202 249 276 319 349 333 176 32 277 36 324 13 13 -7 46 -36
73 -64 28 -29 66 -63 85 -76 19 -13 52 -39 73 -59 34 -32 38 -34 53 -19 23 23
7 47 -75 107 -38 28 -81 67 -95 86 -48 63 -103 86 -214 92 -53 3 -99 3 -102 0z"/>
<path d="M8763 9317 c-6 -7 -9 -103 -8 -237 3 -216 7 -302 20 -475 4 -44 8
-181 11 -305 2 -124 6 -252 8 -285 10 -141 17 -214 26 -270 5 -33 11 -81 14
-106 2 -25 12 -73 20 -107 21 -79 29 -456 23 -1077 -1 -126 2 -261 6 -300 4
-38 9 -133 10 -210 l2 -140 -33 -58 c-19 -32 -90 -133 -159 -224 -134 -177
-290 -342 -487 -513 -61 -52 -117 -102 -125 -111 -21 -21 -78 -54 -154 -91
-34 -17 -82 -46 -105 -65 -64 -53 -304 -154 -397 -168 -22 -3 -96 -17 -165
-30 -69 -14 -143 -27 -165 -30 -22 -4 -74 -17 -115 -30 -250 -78 -347 -90
-575 -71 -44 3 -109 8 -145 11 -68 5 -148 14 -184 21 -12 2 -48 7 -81 10 -33
3 -85 15 -115 26 -30 10 -91 30 -135 44 -74 24 -116 44 -280 134 -84 47 -162
108 -217 172 -26 31 -74 75 -105 99 -144 109 -280 249 -370 379 -17 25 -55 70
-84 100 -42 43 -61 75 -92 150 -21 52 -45 122 -52 155 -15 60 -59 202 -89 283
-9 24 -19 66 -22 94 -3 28 -18 89 -34 137 -16 47 -32 104 -36 126 -4 22 -17
67 -30 101 -22 60 -67 269 -78 371 -3 28 -8 57 -11 65 -2 7 -6 38 -9 68 -3 30
-12 75 -20 99 -17 47 -22 69 -32 141 -3 25 -16 79 -29 120 -64 216 -106 374
-120 455 -9 50 -19 99 -21 110 -5 20 -7 52 -19 270 -9 176 -15 206 -61 323
-20 49 -23 67 -14 77 9 11 7 19 -12 37 -31 30 -64 87 -74 129 -4 19 -8 140 -8
269 -1 129 -5 241 -9 248 -6 8 -14 9 -26 3 -16 -9 -17 -30 -16 -268 2 -217 5
-264 19 -295 9 -21 14 -38 10 -38 -3 0 5 -19 19 -42 79 -136 105 -247 112
-483 3 -104 8 -205 10 -223 13 -88 55 -275 78 -344 15 -42 28 -87 31 -100 3
-13 13 -46 24 -74 11 -28 23 -69 27 -90 5 -21 10 -46 12 -54 2 -8 6 -37 9 -65
4 -27 15 -75 25 -105 10 -30 23 -84 28 -120 6 -36 12 -75 15 -88 3 -13 10 -57
16 -99 16 -120 46 -253 73 -323 13 -36 27 -82 31 -103 4 -21 18 -72 32 -113
26 -78 29 -87 39 -166 3 -26 14 -68 25 -92 10 -25 33 -96 50 -158 38 -138 50
-172 90 -268 28 -67 81 -149 102 -158 5 -2 48 -56 96 -120 97 -131 220 -257
332 -341 41 -31 84 -67 95 -81 69 -88 158 -158 301 -237 156 -86 389 -176 489
-188 28 -3 79 -10 115 -15 61 -8 115 -14 255 -26 121 -11 342 -12 395 -2 54 9
122 28 271 73 41 13 95 26 120 30 24 3 100 17 169 30 69 13 140 26 158 30 45
8 117 32 177 59 28 13 68 29 90 36 22 7 74 36 115 65 41 28 109 69 150 89 78
39 121 68 176 120 18 17 72 65 120 106 110 94 307 290 354 351 19 25 69 90
110 144 112 147 124 164 164 236 l36 65 -5 190 c-2 104 -8 205 -13 224 -4 19
-6 132 -4 250 5 252 5 397 0 765 -4 214 -8 281 -21 325 -9 30 -19 80 -22 110
-3 30 -7 66 -10 80 -23 152 -35 349 -40 655 -2 121 -6 243 -9 270 -11 102 -19
275 -20 458 -1 163 -3 190 -17 198 -11 6 -20 5 -26 -4z"/>
<path d="M7771 9083 c-5 -10 -5 -26 0 -40 5 -13 13 -49 19 -81 5 -31 15 -79
20 -107 11 -50 12 -114 6 -500 -2 -153 0 -212 12 -250 15 -54 17 -64 27 -140
3 -27 11 -68 16 -90 6 -22 13 -50 16 -62 8 -33 26 -45 46 -30 15 11 15 16 2
62 -9 28 -18 66 -21 85 -11 76 -24 148 -36 200 -13 55 -14 196 -4 495 3 112 1
169 -11 225 -8 41 -17 89 -20 105 -9 62 -34 133 -48 139 -8 3 -19 -2 -24 -11z"/>
<path d="M5094 9008 c-10 -17 -5 -82 7 -86 5 -2 9 -9 9 -15 0 -6 9 -20 19 -31
11 -12 23 -37 26 -56 3 -19 12 -62 20 -95 15 -63 20 -89 31 -170 3 -27 9 -54
12 -59 3 -5 6 -82 7 -170 2 -160 5 -191 30 -361 7 -49 11 -98 9 -109 -5 -29
14 -48 36 -36 16 9 18 20 15 75 -2 36 -8 89 -14 118 -16 85 -25 205 -23 322 1
61 -3 133 -9 160 -13 60 -17 85 -23 145 -2 25 -11 70 -19 100 -9 30 -18 71
-21 91 -4 20 -20 55 -36 78 -17 23 -31 53 -32 67 -3 30 -32 51 -44 32z"/>
<path d="M6520 7895 c-10 -13 -5 -22 32 -58 86 -81 181 -162 248 -212 38 -27
94 -70 124 -96 63 -51 128 -78 210 -86 31 -3 56 -9 56 -12 0 -4 -17 -15 -37
-26 -20 -11 -41 -24 -47 -30 -104 -95 -241 -185 -284 -185 -11 0 -25 -7 -32
-16 -11 -12 -11 -18 1 -29 36 -36 185 40 317 162 13 12 50 39 82 60 68 44 98
84 76 102 -8 7 -36 14 -63 17 -132 13 -195 37 -265 102 -21 20 -65 54 -96 75
-31 21 -86 64 -121 95 -35 31 -74 64 -87 72 -13 9 -31 25 -41 36 -30 35 -59
46 -73 29z"/>
<path d="M7558 6972 c-11 -16 -30 -21 -93 -25 -95 -7 -309 -51 -339 -70 -56
-36 -233 -88 -341 -102 -45 -5 -94 -13 -195 -30 -34 -6 -159 -11 -515 -19 -99
-3 -193 -8 -210 -11 -51 -12 -58 -13 -122 -20 -107 -12 -177 -12 -198 0 -11 7
-34 11 -50 10 -34 -2 -174 -43 -191 -56 -7 -6 -7 -34 2 -96 7 -48 13 -95 13
-103 1 -8 26 -60 57 -115 31 -55 83 -152 116 -215 61 -116 138 -231 204 -305
20 -22 47 -56 62 -75 14 -19 107 -116 206 -215 100 -99 216 -217 259 -261 82
-87 177 -146 285 -177 49 -15 177 -18 198 -4 11 7 66 14 154 22 176 15 247 35
393 114 51 27 173 84 272 126 285 121 295 128 448 278 99 98 119 125 161 220
31 71 86 171 151 277 19 30 37 70 41 88 6 31 24 45 24 18 0 -7 7 -19 15 -26
12 -10 18 -10 30 0 22 18 18 41 -15 80 -28 32 -30 40 -30 115 0 106 -46 278
-94 350 -71 107 -200 206 -301 234 -39 10 -150 8 -225 -4 -96 -15 -111 -15
-134 0 -22 15 -25 15 -38 -3z m39 -168 c15 -46 25 -85 22 -88 -2 -2 -44 -18
-94 -36 -49 -17 -108 -39 -130 -47 -22 -8 -64 -21 -93 -29 -29 -8 -94 -32
-145 -53 -51 -22 -114 -41 -142 -44 -27 -2 -86 -14 -130 -25 -44 -11 -107 -24
-140 -27 -140 -15 -229 -27 -236 -30 -16 -10 -116 -16 -322 -19 -259 -4 -244
-9 -285 84 -24 56 -28 66 -41 132 l-8 36 41 4 c23 3 158 6 301 7 143 2 276 4
295 6 169 15 232 23 320 40 14 3 36 7 50 10 71 13 220 65 288 99 26 13 70 27
97 30 28 4 68 12 90 17 44 12 203 27 222 21 7 -2 25 -42 40 -88z m-1813 -990
c3 -8 2 -12 -4 -9 -6 3 -10 10 -10 16 0 14 7 11 14 -7z"/>
<path d="M10447 6229 c-68 -11 -123 -47 -208 -137 -53 -56 -88 -105 -119 -166
-43 -84 -44 -89 -44 -184 -1 -203 14 -266 121 -497 91 -195 85 -177 98 -285
11 -94 16 -122 36 -208 10 -46 24 -93 30 -105 13 -23 16 -318 6 -532 -5 -100
-3 -129 12 -173 25 -74 103 -184 186 -265 70 -68 94 -81 135 -75 21 3 21 4
-11 35 -161 151 -201 198 -249 298 -19 39 -23 63 -22 120 1 38 3 130 5 204 3
128 5 135 25 144 13 6 25 21 28 34 7 27 -10 102 -32 145 -8 16 -18 50 -21 76
-2 26 -13 63 -22 82 -21 41 -39 127 -56 270 -7 54 -41 142 -110 285 -71 146
-92 210 -101 311 -14 170 -8 221 38 304 39 69 55 90 131 169 88 91 120 103
281 104 72 1 143 -2 157 -6 28 -7 134 -111 174 -169 74 -109 126 -227 143
-324 14 -81 6 -328 -12 -363 -17 -32 -93 -101 -111 -101 -7 0 -20 -8 -29 -19
-16 -17 -16 -20 -1 -35 19 -18 77 -21 153 -6 29 5 73 12 99 15 27 3 62 7 78 9
17 3 53 7 80 11 28 3 64 8 80 10 17 2 62 7 100 10 39 4 73 9 77 11 19 12 158
5 186 -10 64 -33 123 -147 118 -226 -4 -46 -29 -75 -126 -143 -25 -17 -51 -37
-59 -45 -32 -32 -99 -66 -153 -78 -32 -8 -86 -28 -120 -45 -57 -29 -66 -30
-145 -25 -93 5 -117 16 -159 71 -34 46 -41 108 -17 155 26 49 54 60 158 59 50
0 115 2 145 6 30 3 72 7 94 9 21 2 42 10 47 17 13 22 -9 38 -49 33 -20 -2
-104 -7 -187 -10 -83 -4 -164 -12 -181 -19 -71 -29 -112 -134 -85 -217 15 -44
73 -114 114 -134 18 -10 67 -18 124 -21 91 -5 96 -4 171 31 42 20 99 40 125
46 54 11 74 23 164 92 34 27 67 48 73 48 5 0 10 4 10 9 0 8 66 53 80 56 3 0
11 4 17 8 16 10 27 4 94 -53 106 -89 127 -115 136 -172 5 -29 7 -61 5 -70 -5
-21 -221 -194 -265 -213 -30 -12 -45 -15 -145 -30 -24 -3 -84 -19 -135 -36
-51 -16 -108 -32 -127 -35 -19 -3 -55 -12 -80 -19 -25 -8 -65 -17 -90 -20 -25
-4 -61 -9 -80 -13 -19 -3 -84 -6 -145 -6 -136 1 -176 18 -232 101 -20 29 -32
130 -21 170 13 46 25 48 208 39 54 -3 74 8 60 34 -7 14 -25 18 -87 20 -113 4
-143 2 -174 -11 -47 -19 -64 -55 -63 -134 0 -85 26 -150 81 -201 62 -59 86
-67 208 -69 158 -4 327 25 565 95 52 15 129 33 170 40 104 17 144 37 241 119
46 39 88 71 92 71 28 1 29 -142 1 -187 -31 -48 -74 -95 -133 -142 -31 -25 -67
-56 -81 -68 -28 -26 -63 -38 -130 -47 -25 -4 -63 -18 -85 -31 -96 -59 -130
-71 -229 -80 -32 -3 -62 -7 -65 -7 -3 -1 -31 4 -61 10 -30 7 -75 13 -100 13
-58 2 -111 37 -150 100 -43 70 -68 93 -85 79 -8 -7 -11 -18 -7 -28 15 -35 84
-133 101 -144 17 -10 18 -14 5 -33 -12 -19 -12 -24 -1 -34 20 -16 106 -30 158
-26 24 2 78 6 119 9 74 6 123 11 188 21 32 5 45 11 166 74 32 17 73 31 89 31
33 0 102 30 133 57 10 10 52 47 92 82 40 35 80 76 89 92 10 16 20 29 24 29 7
0 25 -64 39 -132 5 -27 3 -38 -6 -42 -7 -3 -24 -29 -37 -58 -32 -68 -89 -128
-125 -129 -152 -4 -201 -7 -227 -12 -80 -17 -109 -20 -223 -21 -107 -1 -125
-3 -133 -19 -8 -14 -5 -19 13 -26 12 -4 35 -7 50 -6 16 1 28 2 28 1 0 -2 -9
-20 -19 -41 -10 -22 -17 -49 -15 -62 7 -36 23 -73 32 -73 5 0 14 -11 20 -25 8
-17 20 -25 36 -25 33 0 39 13 18 38 -44 53 -52 68 -52 94 0 19 10 35 36 54 32
25 48 29 142 35 59 4 122 12 140 18 18 5 64 11 103 12 101 3 174 30 217 78 37
42 54 81 57 132 3 53 -28 203 -49 234 -9 13 -13 47 -11 100 2 61 -2 87 -15
111 -16 28 -16 33 -3 47 33 33 20 149 -25 216 -15 22 -47 54 -72 72 -25 18
-57 44 -72 60 -14 15 -41 33 -60 39 -31 11 -33 15 -30 51 6 54 -32 158 -74
208 -57 65 -103 85 -203 83 -46 -1 -86 -4 -90 -6 -4 -3 -42 -7 -86 -11 -44 -3
-91 -8 -105 -10 -14 -2 -97 -14 -185 -25 -87 -12 -164 -24 -170 -27 -5 -3 5 9
23 27 70 70 76 94 76 300 -1 167 -3 191 -23 250 -47 131 -120 257 -200 343
-47 51 -107 98 -129 102 -9 2 -17 4 -17 5 0 7 -257 5 -298 -1z"/>
<path d="M10336 6074 c-17 -17 -18 -19 -21 -79 -2 -39 26 -181 60 -300 9 -33
19 -71 21 -85 18 -91 74 -157 157 -184 24 -8 65 13 73 36 24 78 -32 289 -86
318 -30 16 -60 -22 -60 -78 0 -57 15 -85 38 -73 14 7 17 19 15 48 l-3 38 16
-35 c19 -40 43 -167 36 -191 -9 -37 -91 17 -116 76 -7 17 -18 55 -25 85 -7 30
-21 84 -31 120 -11 36 -21 76 -24 90 -2 14 -7 36 -10 50 -10 38 -15 102 -9
117 7 19 51 6 98 -30 33 -25 121 -126 230 -264 38 -48 56 -64 65 -58 19 12 10
53 -17 83 -16 17 -53 63 -83 103 -122 161 -202 229 -271 229 -21 0 -45 -7 -53
-16z"/>
</g>
</svg>
